<svg width="144" height="24" xmlns="http://www.w3.org/2000/svg">

 <metadata id="metadata7">image/svg+xml</metadata>
 <g>
  <title>background</title>
  <rect fill="none" id="canvas_background" height="402" width="582" y="-1" x="-1"/>
 </g>
 <g>
  <title>Layer 1</title>
  <path id="svg_1" d="m0.17673,12.662966c3.503173,0 6.79693,1.170874 9.271231,3.294965c2.479992,2.125063 3.843475,4.956537 3.843475,7.969715l5.400441,0c0,-8.752889 -8.307232,-15.872384 -18.516284,-15.872384l0,4.607704l0.001138,0zm0.006829,-8.169881c12.488732,0 22.646568,8.720823 22.646568,19.43942l5.398164,0c0,-13.259538 -12.580921,-24.048095 -28.045871,-24.048095l0,4.608676l0.001138,0zm7.466152,16.218302c0,1.763598 -1.674193,3.19391 -3.738767,3.19391s-3.738767,-1.430312 -3.738767,-3.19391c0,-1.761655 1.674193,-3.191967 3.738767,-3.191967s3.738767,1.429341 3.738767,3.191967z" stroke-width="1.5" fill="#ffffff"/>
  <text xml:space="preserve" text-anchor="start" font-family="Helvetica, Arial, sans-serif" font-size="24" id="svg_2" y="24.124249" x="35.827655" stroke-width="1.5" fill="#ffffff">K-M   bile</text>
  <path stroke="null" id="svg_3" d="m90.902658,14.271078c0.01539,0 0.02986,0.513404 0.04073,1.444773c0.010895,0.931796 0.016885,2.173338 0.016885,3.494553l0.023725,0c0,-3.837959 -0.036495,-6.959708 -0.081345,-6.959708l0,2.020382l0.000005,0zm0.00003,-3.582322c0.054865,0 0.09949,3.823899 0.09949,8.523779l0.023715,0c0,-5.81403 -0.05527,-10.544587 -0.12321,-10.544587l0,2.020808l0.000005,0zm0.0328,7.111386c0,0.773301 -0.007355,1.400463 -0.016425,1.400463s-0.016425,-0.627162 -0.016425,-1.400463c0,-0.772449 0.007355,-1.399611 0.016425,-1.399611s0.016425,0.626736 0.016425,1.399611z" stroke-width="1.5" fill="none"/>
  <path id="svg_4" d="m90.191881,6.672282c-4.925243,0 -8.917838,3.902873 -8.917838,8.717435c0,4.814563 3.992595,8.717435 8.917838,8.717435c4.925243,0 8.917838,-3.902873 8.917838,-8.717435c0,-4.814563 -3.992595,-8.717435 -8.917838,-8.717435zm7.016953,9.551152c0.000614,0.0012 0.002454,0.0012 0.003068,0.002399c-0.013499,0.112162 -0.033134,0.221925 -0.052155,0.332287c-0.009204,-0.007198 -0.020862,-0.014995 -0.028838,-0.021593c-0.063199,-0.053982 -0.15585,-0.076774 -0.19512,-0.068977c-0.096333,0.019193 0.140511,0.182938 0.163827,0.20513c0.005522,0.005398 0.019021,0.017994 0.038042,0.034788c-0.631378,3.186116 -3.502954,5.600895 -6.945163,5.600895c-2.529809,0 -4.74669,-1.307555 -5.998402,-3.26349c0.075471,-0.009597 0.14726,-0.009597 0.171804,-0.045584c0.031293,-0.046184 0.062586,-0.144551 0.109218,-0.198532c0.047246,-0.053382 0.101241,-0.137353 0.077925,-0.17514c-0.02393,-0.038387 0.061972,-0.20633 0.053995,-0.251315c-0.007977,-0.045584 -0.077925,-0.153548 0.039269,-0.244117s0.241752,-0.229122 0.249729,-0.266309c0.007363,-0.037787 0.101855,-0.198532 0.093265,-0.274707c-0.007363,-0.076174 -0.093265,-0.167943 -0.14726,-0.190735c-0.055223,-0.022192 -0.171804,-0.02999 -0.218436,-0.090569c-0.047246,-0.061779 -0.179167,-0.121759 -0.225799,-0.106764c-0.046632,0.014995 -0.125171,0.02999 -0.187143,-0.008997c-0.062586,-0.037187 -0.163827,-0.083372 -0.202483,-0.113361c-0.039883,-0.02999 -0.140511,-0.052782 -0.187143,-0.052782c-0.047246,0 -0.039883,-0.031189 -0.109218,0.060579c-0.069949,0.091769 0,0.122358 -0.125171,0.106164c-0.125171,-0.013795 0.01534,-0.021593 0.086515,-0.113361c0.069335,-0.091169 -0.007977,-0.145151 -0.086515,-0.121759c-0.077312,0.022792 -0.023316,0.068977 -0.147874,0.091769c-0.124558,0.021593 -0.124558,-0.053982 -0.046632,-0.068977s0.217823,-0.083372 0.217823,-0.113961c0,-0.03059 -0.01534,-0.114561 -0.077925,-0.114561s-0.047246,-0.075574 -0.140511,-0.174541c-0.05645,-0.060579 -0.120263,-0.098367 -0.183462,-0.122358c-0.055223,-0.347282 -0.092038,-0.699962 -0.092038,-1.062239c0,-1.70582 0.637514,-3.266489 1.687971,-4.473279c0.014726,-0.011996 0.029452,-0.020393 0.042337,-0.021593c0.051541,-0.005398 0.190211,-0.014995 0.312928,-0.035388c0.123944,-0.020393 0.256478,-0.096567 0.300043,-0.091769c0.042337,0.004798 0.147874,0.004798 0.114127,-0.025191c-0.034361,-0.034188 -0.08222,-0.104964 -0.153396,-0.104964s-0.004909,-0.111562 0.014112,-0.111562c0.018408,0 0.114127,0.014995 0.109218,0.065978c-0.004295,0.050983 0.028838,0.11636 0.12333,0.096567c0.095719,-0.020393 0.080993,-0.097167 0.062586,-0.11696c-0.019635,-0.020393 -0.033747,-0.071376 -0.052155,-0.106764c-0.019021,-0.035988 -0.014112,-0.081572 0.085902,-0.091769c0.099401,-0.009597 0.236844,0.040186 0.231935,-0.040786s0,-0.167943 0.028225,-0.213527c0.028838,-0.044985 0.090811,-0.076174 0.057063,-0.091169c-0.03252,-0.014995 -0.075471,0.020393 -0.109218,-0.055781c-0.033134,-0.076174 0.028838,-0.131955 0.066267,-0.162545c0.012272,-0.008997 0.04111,-0.035988 0.076084,-0.067177c1.154153,-0.798928 2.559261,-1.273367 4.078496,-1.273367c1.971447,0 3.756365,0.79353 5.039983,2.069296c-0.004909,0.013196 -0.006136,0.031189 -0.019021,0.033589c-0.047246,0.007797 -0.101855,0.037787 -0.109832,-0.03059c-0.007977,-0.068377 -0.007977,-0.198532 -0.062586,-0.121759c-0.054609,0.076174 -0.077925,0.076174 -0.077925,0.114561c0,0.037787 0.046632,0.076174 0.031293,0.144551c-0.015953,0.068377 -0.015953,0.114561 0.00859,0.114561c0.022089,0 0.077312,-0.068977 0.146647,-0.084571c0.071176,-0.014995 0.195733,-0.052782 0.20371,0.015595c0.007977,0.068977 0.085288,0.091169 0.007977,0.121759c-0.078539,0.03059 -0.163827,0.015595 -0.17978,-0.03059c-0.01534,-0.046184 -0.069949,-0.046184 -0.124558,-0.007797c-0.053995,0.037787 -0.17119,0.17514 -0.17119,0.17514s-0.187757,0.083372 -0.210459,0.068377c-0.024543,-0.014995 0.061972,-0.098966 0.124558,-0.136753c0.062586,-0.038387 0.109218,-0.122358 0.085902,-0.145151c-0.023316,-0.022792 -0.053995,-0.167343 -0.038656,-0.20573c0.01534,-0.037787 0.085288,-0.091169 0.007977,-0.129556c-0.077925,-0.037787 -0.133148,-0.083971 -0.19512,-0.106764s-0.132534,0.091169 -0.187143,0.122358c-0.054609,0.03059 -0.046632,0.068377 -0.117195,0.076174c-0.069949,0.007797 -0.115967,0.098966 0,0.152348c0.117195,0.053382 0.156464,0.091169 0.125171,0.122358c-0.031293,0.03059 -0.163827,-0.014995 -0.163827,-0.014995s-0.101241,-0.045584 -0.164441,-0.045584c-0.061972,0 -0.140511,-0.037787 -0.202483,-0.045584c-0.062586,-0.007797 -0.187757,-0.007797 -0.217823,0.022792c-0.031293,0.03059 -0.109832,0.121759 -0.171804,0.091169c-0.061972,-0.03059 -0.061972,-0.061179 -0.147874,-0.03059c-0.085902,0.03059 -0.17119,-0.022792 -0.217823,0.022792c-0.047246,0.045584 -0.007977,0.045584 -0.156464,0c-0.147874,-0.045584 -0.115967,0.03059 -0.257092,0.053382s-0.225799,-0.022792 -0.265069,0.022792c-0.039269,0.046184 -0.093878,0.130156 -0.116581,0.076174c-0.023316,-0.052782 0.077312,-0.144551 0.038042,-0.17514c-0.038042,-0.03059 -0.202483,-0.014995 -0.225186,0.007797c-0.02393,0.022792 -0.00859,0.106764 0.006749,0.137353c0.015953,0.02999 0.039269,0.152348 -0.006749,0.129556c-0.047246,-0.022792 -0.039269,-0.099566 -0.086515,-0.091169c-0.046632,0.007797 -0.101241,0.03059 -0.124558,0.046184c-0.023316,0.014995 -0.117195,0.014995 -0.140511,0.045584c-0.022703,0.03059 0.00859,0.114561 -0.031293,0.121759c-0.038656,0.007797 -0.069949,0.038387 -0.15585,-0.014995c-0.085902,-0.053382 -0.085902,-0.022792 -0.109218,-0.007198c-0.023316,0.014995 -0.132534,0.076174 -0.140511,0.007198c-0.007977,-0.068377 0.01534,-0.091169 -0.054609,-0.137353c-0.070562,-0.045584 -0.015953,-0.045584 0.077925,-0.014995c0.093265,0.02999 0.210459,0.044985 0.38165,-0.007797c0.171804,-0.053382 0.242366,-0.076174 0.171804,-0.106764c-0.070562,-0.02999 -0.140511,-0.060579 -0.249115,-0.076174c-0.109832,-0.014995 -0.257706,-0.014995 -0.429509,-0.076174c-0.17119,-0.061179 -0.210459,-0.083971 -0.280408,-0.098966c-0.070562,-0.015595 -0.498844,-0.083971 -0.694578,-0.053382c-0.194506,0.03059 -0.732006,0.167943 -0.763913,0.190735s-0.078539,0.113961 -0.179167,0.190735c-0.101241,0.076174 -0.288385,0.251315 -0.436872,0.281904c-0.147874,0.03059 -0.319678,0.152348 -0.319678,0.182938c0,0.03059 0.061972,0.145151 0.046632,0.167943c-0.01534,0.022792 0.030679,0.137353 0.117195,0.167943c0.085288,0.02999 0.233776,0.022792 0.241139,-0.023392c0.00859,-0.045584 0.125171,-0.144551 0.133148,-0.076174c0.007977,0.068977 0.085902,0.17514 0.069949,0.220725c-0.01534,0.046184 0,0.091769 0.055223,0.083971c0.053995,-0.007198 0.342994,-0.068377 0.342994,-0.068377s0.093878,-0.038387 0.077925,-0.099566c-0.015953,-0.060579 0.101855,-0.144551 0.124558,-0.167343c0.023316,-0.022792 0.109218,-0.114561 0.00859,-0.144551c-0.102469,-0.03059 -0.17978,-0.038387 -0.070562,-0.129556s0.179167,0 0.319678,-0.137353c0.140511,-0.137353 -0.031293,-0.17514 0.117195,-0.182938c0.147874,-0.007797 0.304338,-0.014995 0.272432,0.03059c-0.030679,0.045584 -0.209846,0.145151 -0.311701,0.190735c-0.101855,0.046184 -0.085902,0.129556 -0.046632,0.17514c0.038656,0.045584 0.055223,0.152348 0.125171,0.137353c0.069335,-0.014995 0.15585,-0.068377 0.233162,-0.060579c0.078539,0.007198 0.235003,-0.007797 0.257706,-0.007797c0.02393,0 0.132534,0.106764 0.069949,0.121759c-0.061972,0.014995 -0.140511,0.007797 -0.273045,0.014995c-0.131921,0.007797 -0.279795,0.007797 -0.279795,0.03059c0,0.023392 0.179167,0.076174 0.116581,0.114561c-0.062586,0.037787 -0.124558,-0.007797 -0.203096,-0.015595c-0.077925,-0.007198 -0.124558,0.099566 -0.147874,0.160146c-0.02393,0.061179 0.038656,0.167943 -0.077925,0.129556c-0.117195,-0.037787 -0.203096,-0.037787 -0.233776,-0.022792c-0.031293,0.014995 -0.124558,0.045584 -0.203096,0.068377c-0.077312,0.022792 -0.046632,-0.037787 -0.148487,-0.037787c-0.100628,0 -0.100628,0 -0.100628,0l-0.063199,0.007797c0,0 -0.061972,-0.037787 -0.069949,-0.098966c-0.007977,-0.061179 0.030679,-0.129556 -0.007977,-0.144551c-0.039269,-0.015595 -0.179167,0.007198 -0.202483,0.052782c-0.023316,0.045584 -0.047246,0.129556 -0.015953,0.167943c0.031906,0.037787 0.125171,0.113961 0.039269,0.091169c-0.085902,-0.022792 -0.194506,-0.03059 -0.257092,0.015595c-0.061972,0.045584 -0.17119,0.144551 -0.17119,0.144551s-0.19512,0.014995 -0.19512,0.061179c0,0.046184 0,0.106764 -0.069949,0.114561c-0.070562,0.007797 -0.164441,0.02999 -0.257706,0.045584c-0.093878,0.014995 -0.085288,0.052782 -0.194506,0.061179s-0.125171,0.053382 -0.023316,0.068377c0.101241,0.014995 0.256478,0.076174 0.264455,0.144551c0.00859,0.068377 -0.007977,0.145151 -0.046632,0.213527c-0.026384,0.047384 -0.187143,0.015595 -0.281022,0.015595c-0.093265,0 -0.279795,-0.03059 -0.358333,0c-0.077925,0.03059 -0.062586,0.182938 -0.039269,0.251315c0.02393,0.068377 -0.007363,0.106764 -0.038656,0.129556c-0.031293,0.022792 -0.039883,0.091169 0,0.122358c0.038656,0.03059 0.069949,0.098966 0.101855,0.106764c0.031293,0.007797 0.131921,-0.022792 0.17119,0.014995c0.039269,0.038387 0.077925,0.129556 0.101241,0.106764c0.02393,-0.022792 0.054609,-0.121759 0.093878,-0.099566c0.039269,0.023392 0.132534,-0.007198 0.203096,-0.014995s0.108604,-0.083971 0.179167,-0.122358c0.069949,-0.037787 0.030679,-0.037787 0.007977,-0.083971c-0.023316,-0.045584 0.069949,-0.098966 0.125171,-0.152348c0.053995,-0.053382 0.155237,-0.007797 0.179167,-0.068977c0.023316,-0.061179 0.031293,-0.167343 0.092651,-0.160146c0.063199,0.007797 0.149101,0.045584 0.203096,0.045584c0.054609,0 0.17119,-0.083971 0.20371,-0.098966c0.030679,-0.014995 0.147874,-0.007797 0.163827,0.061179c0.01534,0.068377 0.147874,0.152348 0.179167,0.167343c0.031293,0.014995 0.233776,0.076174 0.265682,0.098966c0.030679,0.022792 0.077312,0.091769 0.093265,0.152348c0.01534,0.061179 0.069949,0.061179 0.078539,0.007797c0.007363,-0.053382 -0.039883,-0.152348 0.01534,-0.145151c0.053995,0.007797 0.117195,-0.015595 0.117195,-0.015595s-0.149101,-0.098966 -0.203096,-0.121759c-0.053995,-0.022792 -0.156464,-0.068377 -0.203096,-0.144551c-0.046632,-0.076174 -0.163827,-0.091769 -0.15585,-0.167343c0.007977,-0.076174 0.117195,-0.03059 0.179167,0.03059c0.062586,0.061179 0.218436,0.144551 0.273045,0.197933c0.053995,0.053382 0.140511,0.076174 0.163827,0.145151c0.02393,0.068377 0.093265,0.144551 0.116581,0.17514c0.023316,0.03059 0.101241,0.198532 0.125171,0.23632c0.023316,0.037787 0.101241,-0.007198 0.140511,-0.037787c0.038656,-0.03059 0.109832,-0.045584 0.117195,-0.106764c0.007977,-0.061179 -0.093878,-0.106764 -0.124558,-0.129556c-0.031293,-0.022792 0.077925,-0.045584 0.117195,-0.076174c0.038656,-0.02999 0.108604,-0.083971 0.139897,-0.037787c0.031293,0.046184 0.015953,0.228522 0.031293,0.259112c0.01534,0.03059 0.17119,0.076174 0.203096,0.114561c0.030679,0.037787 0.163827,0.053382 0.18653,0.03059c0.02393,-0.022792 0.148487,0.015595 0.180394,0.022792c0.030066,0.007797 0.123944,-0.014995 0.18653,-0.02999c0.063199,-0.014995 0.125171,-0.061179 0.117195,0.037787c-0.007977,0.098966 -0.031293,0.251315 -0.109832,0.327489c-0.077925,0.076174 -0.046632,0.114561 -0.123944,0.114561c-0.036815,0 -0.069335,0 -0.095719,0.012596c-0.025157,-0.038987 -0.060131,-0.070176 -0.107377,-0.05818c-0.093265,0.022792 -0.211073,0.022792 -0.288385,0.113961c-0.078539,0.091769 -0.109218,0.098966 -0.125171,0.068377c-0.01534,-0.03059 0.226413,-0.160146 0.194506,-0.198532c-0.030679,-0.037787 -0.217823,-0.022792 -0.319678,-0.022792c-0.101855,0 -0.187143,-0.061179 -0.265682,-0.076174c-0.077312,-0.014995 -0.179167,0.076174 -0.256478,0.152348c-0.078539,0.076174 -0.132534,0.022792 -0.203096,0.022792c-0.070562,0 -0.203096,-0.098966 -0.203096,-0.098966s-0.132534,-0.053382 -0.187143,-0.053382c-0.053995,0 -0.163827,-0.098966 -0.19512,-0.098966c-0.030679,0 -0.116581,-0.068977 -0.053995,-0.099566c0.061972,-0.02999 0.123944,0.03059 0.061972,-0.137353c-0.061972,-0.167343 -0.202483,-0.129556 -0.257092,-0.106764c-0.053995,0.023392 -0.444235,0.014995 -0.475528,0.014995c-0.031293,0 -0.257092,0.076174 -0.327041,0.106764c-0.071176,0.03059 -0.19512,0.068977 -0.226413,0.083971c-0.031293,0.014995 -0.19512,-0.03059 -0.265682,0.007797c-0.092651,0.050383 -0.178553,0.129556 -0.202483,0.129556c-0.023316,0 -0.093878,0.053382 -0.140511,0.167943c-0.047246,0.113961 0.007977,0.212928 -0.078539,0.251315c-0.085288,0.037787 -0.241752,0.122358 -0.303724,0.182938c-0.062586,0.060579 -0.140511,0.274707 -0.217823,0.373673c-0.077925,0.098966 0,0.190135 0.01534,0.251315c0.01534,0.060579 0.069949,0.17514 -0.01534,0.282504c-0.085902,0.106764 -0.077925,0.159546 -0.117195,0.167343c-0.038656,0.007797 0.038656,0.037787 0.053995,0.113961c0.01534,0.076774 -0.069949,0.152948 0.078539,0.221325c0.147874,0.067777 0.217823,0.130156 0.256478,0.220125c0.039269,0.091769 0.234389,0.244117 0.234389,0.244117s0.140511,0.122958 0.211073,0.17574c0.069949,0.053382 0.093265,0.022792 0.108604,-0.02999c0.01534,-0.053982 0.109218,-0.062379 0.217823,-0.062379c0.109218,0 0.187143,0.023992 0.296361,0.008397c0.109218,-0.014995 0.218436,-0.084571 0.257706,-0.099566c0.038656,-0.014995 0.17119,-0.098367 0.271818,-0.037787c0.101855,0.061779 0.086515,0.144551 0.141124,0.199132c0.053995,0.052782 0.14726,0.022192 0.217823,-0.03059c0.069949,-0.053982 0.039269,-0.031189 0.124558,0.014995c0.085902,0.044985 0.125171,0.090569 0.047246,0.160146c-0.078539,0.067777 -0.031293,0.17574 -0.078539,0.281904c-0.046632,0.106764 -0.038656,0.121759 0.047246,0.166743c0.085902,0.045584 0.241752,0.328688 0.288385,0.38267c0.047246,0.052782 -0.01534,0.20513 0.039269,0.296899c0.054609,0.090569 0.109218,0.152348 0.047246,0.198532c-0.063199,0.044985 -0.171804,0.129556 -0.179167,0.281904s0.031293,0.258512 0.062586,0.312494s0.108604,0.198532 0.147874,0.251315c0.039269,0.053382 0.085902,0.182938 0.093265,0.266909c0.007977,0.083971 -0.014726,0.183538 0.02393,0.228522c0.039269,0.045584 0.062586,0.114561 0.132534,0.17514c0.070562,0.061779 0.093265,0.190735 0.093265,0.190735s0.02393,0.053382 0.031293,0.137353c0.007363,0.083971 0.01534,0.136753 0.093265,0.17514c0.077312,0.037787 0.131921,0.045584 0.171804,0.007797c0.038656,-0.037787 0.233776,-0.046184 0.335017,-0.037787c0.101241,0.007797 0.217823,-0.044985 0.319678,-0.113961s0.249729,-0.251315 0.304338,-0.304696c0.054609,-0.053982 0.179167,-0.152948 0.164441,-0.213527c-0.01534,-0.060579 -0.047246,-0.121759 0.014726,-0.152348c0.062586,-0.031189 0.211073,-0.091169 0.218436,-0.137353c0.007977,-0.046184 -0.055223,-0.236919 -0.070562,-0.274107c-0.014726,-0.038387 0.039269,-0.107963 0.101241,-0.183538c0.063199,-0.076774 0.258319,-0.129556 0.288998,-0.160146c0.031293,-0.031789 0.117195,-0.160146 0.133148,-0.259712c0.014726,-0.100166 -0.031293,-0.221325 0,-0.274107c0.030679,-0.053982 0.007977,-0.098966 -0.063199,-0.160745c-0.069949,-0.061179 -0.054609,-0.244117 -0.077925,-0.274107c-0.022703,-0.03059 -0.007977,-0.191335 0.038656,-0.20693c0.046632,-0.013795 0.148487,-0.167343 0.211073,-0.23572c0.062586,-0.068377 0.241752,-0.281904 0.327654,-0.297499c0.085288,-0.014995 0.217823,-0.137353 0.225799,-0.20573c0.007977,-0.068977 0.233162,-0.328088 0.241752,-0.38087c0.007977,-0.053982 0.101855,-0.251914 0.062586,-0.298099c-0.038042,-0.045584 -0.342994,0.068977 -0.38165,0.084571c-0.039269,0.014995 -0.147874,0.076174 -0.273659,0.067777c-0.123944,-0.007797 -0.069949,-0.106164 -0.077925,-0.152348c-0.007363,-0.045584 -0.139897,-0.220725 -0.17119,-0.228522c-0.031293,-0.007198 -0.124558,-0.099566 -0.163827,-0.190135c-0.038656,-0.091769 -0.093265,-0.20573 -0.15585,-0.274707c-0.062586,-0.068377 -0.101241,-0.227922 -0.164441,-0.335286c-0.061972,-0.106764 -0.115967,-0.244117 -0.17119,-0.343083c-0.012885,-0.024592 -0.027611,-0.047384 -0.04111,-0.070176c0.072403,-0.017394 0.177326,-0.049183 0.190211,-0.005398c0.014726,0.052782 0.101241,0.167343 0.116581,0.251315s0.101241,0.053382 0.109218,0.129556c0.00859,0.076774 0.085902,0.259712 0.116581,0.281904c0.031906,0.022792 0.171804,0.145151 0.19512,0.190735c0.023316,0.045584 0.054609,0.106764 0.077925,0.221325c0.023316,0.113961 0.046632,0.266309 0.109832,0.289102c0.062586,0.022792 0.272432,-0.038387 0.311701,-0.061179s0.295748,-0.145151 0.389626,-0.152948c0.093878,-0.007198 0.109832,-0.068977 0.225799,-0.091169c0.117195,-0.022792 0.203096,-0.106164 0.281022,-0.167943c0.077925,-0.060579 0.171804,-0.212928 0.202483,-0.266309c0.031906,-0.052782 0.109832,-0.091169 0.070562,-0.151748c-0.038656,-0.061779 -0.203096,-0.152348 -0.265682,-0.160745c-0.062586,-0.007198 -0.054609,-0.106764 -0.093265,-0.106764s-0.031293,0.052782 -0.109218,0.091769c-0.077925,0.037787 -0.156464,0.113961 -0.211073,0.098966s0.015953,-0.053382 -0.069335,-0.121759s-0.117808,-0.083971 -0.117808,-0.136753c0,-0.053382 -0.170577,-0.152948 -0.18653,-0.229122c-0.015953,-0.076174 0.116581,-0.182938 0.15585,-0.113961c0.038656,0.068377 0.070562,0.17514 0.17119,0.220725c0.101241,0.045584 0.19512,0.122358 0.242366,0.137353c0.046632,0.014995 0.163827,-0.083971 0.202483,-0.068377c0.038656,0.014395 0.117195,0.151748 0.187757,0.17514c0.069335,0.022792 0.303724,0.03059 0.342994,0.03059s0.202483,0.007797 0.233776,-0.037787c0.031293,-0.045584 0.054609,-0.045584 0.093878,-0.045584c0.038042,0 0.108604,0.137353 0.163827,0.152348c0.054609,0.014995 0.15585,0.007797 0.147874,0.107363c-0.007363,0.098367 0.046632,0.182938 0.101241,0.190135c0.055223,0.007198 0.17978,-0.114561 0.17978,-0.114561s0,0.190735 -0.007363,0.259712c-0.00859,0.067777 0.085288,0.320291 0.085288,0.320291s0.116581,0.23572 0.147874,0.289102s0.163827,0.212928 0.163827,0.281904c0,0.068977 0.01534,0.17574 0.063199,0.17574c0.046632,0 0.093265,-0.121759 0.14726,-0.198532c0.055836,-0.075574 0.071176,-0.182938 0.093878,-0.259112c0.023316,-0.076174 0.023316,-0.213527 0.023316,-0.266309c0,-0.053982 0.046019,-0.099566 0.156464,-0.145151c0.109218,-0.045584 0.18653,-0.17514 0.279795,-0.244117c0.093878,-0.068977 0.086515,-0.182938 0.273659,-0.182938c0.187143,0 0.170577,0 0.217823,-0.046184c0.046632,-0.045584 0.092651,-0.076174 0.116581,0.007797c0.023316,0.083971 0.15585,0.20573 0.179167,0.23632c0.023316,0.031189 0.069949,0.114561 0.063199,0.20633c-0.007977,0.091169 0.007363,0.197933 0.046019,0.197933s0.117195,-0.129556 0.117195,-0.129556s0.17119,-0.113361 0.163827,0.007797c-0.00859,0.121759 0.01534,0.251315 0.01534,0.326889c0,0.031789 0.025771,0.080972 0.053995,0.125957c-0.003068,0.035388 -0.002454,0.071376 -0.005522,0.106764c-0.055836,0.014395 -0.05645,0.11876 -0.026384,0.156547zm-4.328225,-3.194514c0.046632,0.02999 0.062586,0.076174 0.093265,0.121759c0.031906,0.045584 0.085902,0.02999 0.124558,0.068377c0.038656,0.038387 -0.109218,0.083971 -0.046019,0.129556c0.061972,0.046184 0.092651,0.228522 0.101241,0.274707c0.007977,0.045584 -0.17119,0.068377 -0.226413,0.061179c-0.054609,-0.007797 -0.217209,-0.061179 -0.273045,-0.076174c-0.054609,-0.015595 -0.085288,-0.20573 -0.01534,-0.198532c0.071176,0.007797 0.086515,-0.014995 0.163827,-0.083372c0.078539,-0.068977 -0.115967,-0.099566 -0.170577,-0.114561c-0.054609,-0.014995 -0.164441,-0.182938 -0.203096,-0.23632c-0.038042,-0.053382 -0.00859,-0.136753 0.086515,-0.198532c0.046632,-0.03059 0.17119,0.037787 0.233776,0c0.061972,-0.037787 0.124558,-0.083971 0.147874,-0.098966c0.02393,-0.014995 0.17978,0.022792 0.202483,0.068377c0.02393,0.045584 0.117195,0.114561 0.086515,0.137353c-0.031906,0.022792 -0.172417,0.045584 -0.218436,0c-0.046019,-0.046184 -0.156464,0.007198 -0.164441,0.091169c-0.00859,0.084571 0.031293,0.023392 0.077312,0.053982zm-2.151841,0.129556c-0.047246,-0.014995 0.01534,-0.106764 0.062586,-0.137353c0.046019,-0.03059 0.100628,-0.106764 0.147874,-0.182938c0.046632,-0.076174 0.109218,-0.083971 0.147874,-0.076174c0.038656,0.007797 0.124558,0.144551 0.147874,0.190735c0.023316,0.045584 0.101241,-0.015595 0.133148,-0.03059c0.030679,-0.014995 0.077925,-0.061179 0.085902,-0.098966s0.077925,-0.061179 0.15585,-0.061179s0.007977,0.061179 -0.046632,0.076174c-0.055223,0.014995 -0.023316,0.046184 0.069335,0.076174c0.093878,0.03059 0.17978,0.114561 0.281635,0.167343c0.101241,0.053382 0.116581,0.160146 0.053995,0.17514c-0.061972,0.014995 -0.249115,0.03059 -0.319678,0.022792c-0.069949,-0.007797 -0.15585,-0.076174 -0.257092,-0.091769c-0.101241,-0.014995 -0.226413,-0.007797 -0.265682,0.046184s-0.179167,0.02999 -0.242366,0.02999c-0.062586,0 -0.139897,0.076174 -0.155237,0.046184c0.000614,0.0006 0.047246,-0.136154 0.000614,-0.151748zm0.265069,-1.692624c0.038656,-0.106764 0.257092,0.022792 0.217823,0.076174c-0.038656,0.053982 -0.244207,-0.003599 -0.217823,-0.076174zm0.303724,5.473739c0.038656,0.061179 -0.085902,0.258512 -0.15585,0.244117c-0.069335,-0.016194 -0.046632,-0.190735 -0.023316,-0.229122c0.023316,-0.038387 0.158918,-0.047984 0.179167,-0.014995zm-2.830465,-3.544795c0.01534,-0.03059 -0.02393,-0.091769 -0.077925,-0.007797c-0.018408,0.02939 0.062586,0.038387 0.077925,0.007797zm4.677969,-2.782454c0.086515,0.045584 0.208005,0.064178 0.265682,0.007797c0.046632,-0.045584 0.007977,-0.122358 -0.030679,-0.129556c-0.039269,-0.007797 -0.063813,-0.068977 0.038042,-0.121759c0.101241,-0.053382 0.210459,-0.122358 0.327654,-0.137353c0.116581,-0.014995 0.38165,-0.022792 0.474914,0c0.093265,0.023392 0.234389,-0.099566 0.273045,-0.152348s-0.124558,-0.091169 -0.17119,-0.03059c-0.047246,0.061179 -0.272432,0.045584 -0.319678,0.03059c-0.046632,-0.014995 -0.420919,0.061179 -0.498231,0.061179c-0.078539,0 -0.109832,0.091169 -0.218436,0.137353c-0.109832,0.045584 -0.257706,0.114561 -0.312315,0.137353c-0.053995,0.022792 -0.108604,0.113961 -0.061972,0.129556c0.046632,0.014995 0.147874,0.022192 0.233162,0.067777zm-4.093222,2.782454c0.039269,-0.053382 -0.031293,-0.130156 -0.069949,-0.130156c-0.07363,0 -0.109218,0.114561 -0.063199,0.152348c0.047246,0.038987 0.093878,0.031189 0.133148,-0.022192zm0.35097,0.20573c0.039269,0.014995 0.069949,0.061179 0.101241,0.068377c0.031906,0.007797 0.133148,0 0.102469,-0.076174s-0.102469,-0.076174 -0.125171,-0.076174c-0.023316,0 -0.124558,-0.022792 -0.163827,0c-0.028838,0.016794 0.046019,0.068977 0.085288,0.083971zm-2.089869,-1.23498c0.061972,0.007797 0.133148,-0.037787 0.187143,-0.060579c0.053995,-0.022792 0.132534,-0.068377 0.132534,-0.137353c0,-0.068377 -0.01534,-0.129556 -0.047246,-0.160146c-0.031293,-0.03059 -0.085902,-0.038387 -0.132534,-0.03059c-0.070562,0.011996 -0.077925,0.083971 -0.124558,0.083971c-0.046632,0 -0.101241,0.014995 -0.085902,0.068377s0.047246,0.091169 0,0.113961c-0.046632,0.023392 0.007363,0.115161 0.070562,0.122358zm0.382263,-0.327489c0.077925,0.03059 0.241752,0.061179 0.179167,0.091769c-0.062586,0.03059 -0.171804,0.113961 -0.187143,0.160146s0.132534,0.091769 0.132534,0.091769s-0.047246,0.053382 -0.007977,0.068377c0.038656,0.014995 0.062586,-0.053382 0.124558,-0.053382c0.061972,0 0.18653,0.037787 0.249115,0.037787c0.063199,0 0.163827,-0.083971 0.15585,-0.137353c-0.007977,-0.053382 -0.085902,-0.137353 -0.15585,-0.167943c-0.069335,-0.03059 -0.147874,-0.167943 -0.194506,-0.198532c-0.046632,-0.03059 0.046632,-0.106764 -0.007977,-0.160146c-0.055223,-0.053382 -0.093878,-0.045584 -0.156464,-0.083971c-0.062586,-0.037787 -0.117195,0.007797 -0.15585,0.053382c-0.038656,0.045584 -0.085902,-0.007797 -0.133148,0.007198c-0.062586,0.020993 -0.038656,0.099566 -0.007363,0.137353c0.031906,0.038987 0.087129,0.122958 0.165054,0.153548zm7.852655,4.070216c-0.050928,0.022192 -0.093878,0.281904 0,0.312494c0.093265,0.031189 0.147874,-0.121159 0.117195,-0.160146c-0.031906,-0.037187 -0.047246,-0.182938 -0.117195,-0.152348zm-2.831693,1.958934c-0.09756,-0.026991 -0.108604,0.099566 -0.18653,0.183538c-0.078539,0.084571 -0.163827,0.152348 -0.194506,0.144551c-0.031906,-0.007797 -0.203096,0.053382 -0.148487,0.167343c0.054609,0.114561 0.046632,0.229122 -0.007977,0.283104c-0.054609,0.052782 0.046632,0.20513 0.031906,0.289102c-0.015953,0.083372 0.022703,0.137353 0.131921,0.137353s0.148487,-0.038387 0.19512,-0.137353c0.046632,-0.099566 0.053995,-0.198532 0.100628,-0.281904c0.047246,-0.084571 0.086515,-0.260311 0.109832,-0.305896c0.023316,-0.044985 0.069949,-0.189536 0.062586,-0.274107c-0.00859,-0.082772 -0.039269,-0.190735 -0.094492,-0.20573zm-5.965882,-6.994821c-0.042337,-0.035988 -0.140511,-0.061179 -0.187757,-0.065978c-0.046632,-0.004798 -0.093265,0.035988 -0.196961,0.035988c-0.103082,0 -0.17119,0.040186 -0.212914,0c-0.041724,-0.040786 -0.214141,-0.061179 -0.230094,-0.035988c-0.020862,0.034188 -0.061972,0.035388 -0.020862,0.106764c0.042337,0.070776 0.07363,0.111562 0.109832,0.106764s0.160759,-0.010197 0.176712,0.03059c0.01534,0.040786 0.057677,0.076174 0.14542,0.050983c0.08897,-0.025191 0.161373,-0.040786 0.181621,-0.071376c0.020248,-0.03059 0.161373,-0.035388 0.161373,-0.035388s0.11474,-0.08697 0.07363,-0.122358z" stroke-width="1.5" fill="#ffffff"/>
 </g>
</svg>