<svg width="300" height="45" xmlns="http://www.w3.org/2000/svg">

    <metadata id="metadata7">image/svg+xml</metadata>
    <g>
        <title>background</title>
        <rect fill="none" id="canvas_background" height="402" width="582" y="-1" x="-1"/>
    </g>
    <g>
        <title>Layer 1</title>
        <text xml:space="preserve" text-anchor="start" font-family="'Palatino Linotype', 'Book Antiqua', Palatino, serif" font-size="42" id="svg_2" y="37.708332" x="78.125008" stroke-width="0" fill="#3498db">K - M   bile</text>
        <path stroke="null" transform="rotate(-0.9232075214385986 196.12069702148443,24.5687847137447) " id="svg_4"
              d="m196.120703,6.4172c-9.646438,0 -17.466217,8.126624 -17.466217,18.151583c0,10.024959 7.819779,18.151583 17.466217,18.151583c9.646438,0 17.466217,-8.126624 17.466217,-18.151583c0,-10.024959 -7.819779,-18.151583 -17.466217,-18.151583zm3.795123,27.229872c-0.094938,0.07993 -0.21992,0.162358 -0.126184,0.258523c0.093736,0.097415 -0.108157,0.163607 -0.108157,0.212314s0.124982,0.307231 0.062491,0.419632c-0.062491,0.114899 -0.109359,0.278506 -0.156227,0.37592c-0.046868,0.096166 -0.157429,0.19358 -0.124982,0.339702c0.030044,0.144873 -0.124982,0.096166 -0.124982,0.242288c0,0.144873 0.139403,0.081179 0.108157,0.259772c-0.030044,0.179842 -0.108157,0.22855 -0.108157,0.355938c0,0.129886 0.076912,0.308479 0.076912,0.357187s-0.076912,0.212314 -0.186271,0.339702c-0.110561,0.129886 -0.186271,0.212314 -0.173052,0.290995c0.016824,0.081179 0.124982,0.179842 0.109359,0.229798c-0.015623,0.046209 -0.155026,0.209816 -0.139403,0.323466c0.016824,0.112401 0.155026,0.066192 0.186271,0.144873c0.031245,0.081179 -0.186271,0.147371 -0.093736,0.22855c0.093736,0.07993 0.21992,0.063694 0.187473,0.259772c-0.022833,0.139877 0.076912,0.203571 0.15142,0.247283c-1.070758,0.276008 -2.184779,0.439614 -3.337256,0.439614c-7.643122,0 -13.859769,-6.460585 -13.859769,-14.403619c0,-2.58898 0.669374,-5.014353 1.824255,-7.115011c0.094938,-0.052454 0.16464,-0.086174 0.205499,-0.077432c0.078114,0.016236 0.094938,0.129886 0.21992,0.162358c0.124982,0.032472 0.234341,-0.097415 0.312455,-0.146122c0.076912,-0.048707 0.139403,-0.243536 0.061289,-0.227301c-0.078114,0.016236 -0.281209,0 -0.281209,0s0.21992,-0.129886 0.21992,-0.211065s0.030044,-0.211065 0.155026,-0.259772c0.12378,-0.049956 0.12378,-0.017485 0.045666,0.177344c-0.078114,0.194829 0.157429,0.11365 0.249964,0.032472s0.156227,-0.016236 0.326876,-0.129886c0.17185,-0.11365 0.17185,-0.178593 0.265586,-0.178593c0.093736,0 0.265586,0.178593 0.359323,0.11365c0.092535,-0.064943 0.359323,0.081179 0.51555,0.081179c0.155026,0 0.654953,0.211065 0.749891,0.211065c0.093736,0 0.374946,0.112401 0.390568,0.323466c0.015623,0.211065 0.108157,0.194829 0.201894,0.194829s0.312455,0.081179 0.312455,0.162358c0,0.081179 -0.062491,0.405894 0.093736,0.487073c0.155026,0.07993 0.296832,0.211065 0.359323,0.178593c0.062491,-0.032472 0,-0.290995 -0.076912,-0.324715c-0.078114,-0.032472 -0.032447,-0.146122 -0.062491,-0.211065c-0.031245,-0.063694 0.093736,-0.063694 0.140605,0.048707c0.046868,0.11365 0.17185,0.324715 0.249964,0.324715c0.076912,0 0.249964,0.194829 0.201894,0.308479c-0.046868,0.11365 0.046868,0.276008 0.187473,0.276008c0.139403,0 0.312455,0.227301 0.374946,0.243536c0.062491,0.016236 0.140605,0.097415 0.140605,0.146122c0,0.049956 0.078114,0.324715 0.078114,0.438366c0,0.112401 -0.04807,0.567003 -0.063693,0.745596s0.124982,0.487073 0.281209,0.649431c0.155026,0.162358 0.29563,0.470837 0.389367,0.53578c0.094938,0.064943 0.156227,0.243536 0.296832,0.227301c0.140605,-0.016236 0.234341,0.097415 0.359323,0.324715c0.124982,0.227301 0.249964,0.599474 0.3437,0.631946c0.093736,0.032472 0.249964,0.146122 0.170648,0.227301c-0.076912,0.07993 -0.201894,0.259772 -0.061289,0.259772c0.140605,0 0.187473,-0.081179 0.296832,0.066192c0.108157,0.144873 0.249964,0.226052 0.233139,0.324715c-0.015623,0.096166 0.124982,0.128637 0.187473,0.144873c0.062491,0.016236 0.203096,0.308479 0.3437,0.178593c0.140605,-0.129886 -0.186271,-0.323466 -0.281209,-0.407143c-0.093736,-0.07993 0,-0.258523 -0.218718,-0.437117c-0.218718,-0.178593 -0.187473,-0.308479 -0.3437,-0.438366c-0.156227,-0.129886 -0.280007,-0.243536 -0.124982,-0.357187c0.156227,-0.11365 0.17185,0.11365 0.234341,0.259772c0.062491,0.144873 0.389367,0.438366 0.529971,0.567003c0.140605,0.129886 0.39177,0.584487 0.468682,0.584487s0.296832,0.259772 0.296832,0.259772s0.12378,0.209816 0.076912,0.274759c-0.046868,0.064943 0.063693,0.308479 0.173052,0.373423c0.108157,0.064943 0.546796,0.274759 0.609287,0.308479c0.062491,0.03372 0.186271,0.276008 0.359323,0.276008c0.170648,0 0.296832,0.017485 0.3437,0.066192c0.046868,0.047458 0.186271,0.242288 0.281209,0.129886c0.093736,-0.114899 0.108157,-0.163607 0.249964,-0.163607c0.140605,0 0.201894,0.11365 0.280007,0.194829c0.078114,0.081179 0.296832,0.293493 0.406191,0.277257c0.109359,-0.016236 0.249964,0.129886 0.328077,0.07993s0.203096,0.031223 0.264385,0.064943c0.064894,0.032472 0.281209,0.147371 0.266788,0.339702c-0.015623,0.196078 0.12378,0.243536 0.218718,0.292244c0.093736,0.048707 0.218718,0.162358 0.298034,0.243536c0.076912,0.078681 0.24756,0.096166 0.29563,0.144873c0.046868,0.048707 0.078114,0.146122 0.218718,0.064943c0.139403,-0.07993 0.110561,-0.226052 0.110561,-0.226052s0.155026,-0.032472 0.233139,0.032472c0.076912,0.062445 0.124982,0.274759 0.173052,0.307231c0.045666,0.032472 0.138201,0.276008 0.07571,0.452104c-0.061289,0.181091 -0.045666,0.357187 -0.109359,0.357187c-0.062491,0 -0.139403,0.212314 -0.234341,0.261021c-0.091333,0.048707 -0.342498,0.276008 -0.326876,0.357187c0.015623,0.078681 0.157429,0.322217 0.124982,0.437117c-0.030044,0.11365 -0.233139,0.243536 -0.185069,0.42213c0.045666,0.179842 0.374946,0.22855 0.388165,0.389658c0.016824,0.163607 0.251166,0.520793 0.282411,0.681902c0.030044,0.162358 0.29563,0.339702 0.29563,0.565754c0,0.229798 0.374946,0.374671 0.453059,0.389658c0.07571,0.016236 0.218718,0.163607 0.326876,0.212314s0.203096,0.144873 0.280007,0.276008s0.063693,0.325964 0.063693,0.373423c0,0.048707 -0.046868,0.549518 -0.093736,0.841762c-0.04807,0.293493 0.060087,0.520793 -0.032447,0.603221zm-10.085076,-15.088019c0.046868,0.016236 0.140605,0.11365 0.187473,0.11365c0.04807,0 0.281209,0.194829 0.3437,0.259772c0.063693,0.064943 0.063693,0.243536 -0.015623,0.259772s-0.124982,-0.178593 -0.140605,-0.259772c-0.015623,-0.081179 -0.17185,-0.081179 -0.249964,-0.129886c-0.078114,-0.048707 -0.252367,-0.288497 -0.124982,-0.243536zm20.122082,6.521781c-0.173052,0.227301 -0.156227,0.339702 -0.234341,0.357187c-0.076912,0.016236 0.078114,0.081179 0.108157,0.242288c0.026438,0.139877 -0.078114,0.279755 0.07571,0.408392c-0.58405,5.768691 -4.458488,10.533263 -9.633218,12.223032c-0.008412,-0.013738 -0.022833,-0.031223 -0.025237,-0.042463c-0.032447,-0.097415 -0.032447,-0.290995 0.076912,-0.355938c0.109359,-0.066192 0.374946,-0.290995 0.436235,-0.339702c0.062491,-0.049956 0.156227,-0.276008 0.109359,-0.308479c-0.045666,-0.032472 -0.278806,0 -0.312455,-0.048707c-0.031245,-0.048707 -0.031245,-0.114899 0.124982,-0.227301c0.156227,-0.11365 0.234341,-0.277257 0.296832,-0.324715c0.062491,-0.048707 0.186271,-0.146122 0.234341,-0.261021c0.045666,-0.112401 -0.049272,-0.048707 -0.141806,-0.048707s-0.140605,-0.177344 -0.140605,-0.258523s0.234341,0.032472 0.407393,0.064943c0.17185,0.029974 0.092535,-0.081179 0.076912,-0.177344c-0.015623,-0.097415 0.031245,-0.261021 0.126184,-0.212314c0.091333,0.048707 0.575638,-0.016236 0.638129,-0.032472c0.062491,-0.016236 0.233139,-0.307231 0.29563,-0.389658c0.063693,-0.081179 0.076912,-0.161109 0,-0.209816c-0.078114,-0.049956 -0.17185,-0.229798 -0.201894,-0.276008c-0.031245,-0.051205 -0.046868,-0.3422 -0.015623,-0.424628c0.030044,-0.078681 0,0.470837 0.217517,0.537029c0.21992,0.064943 0.3437,0.097415 0.546796,-0.097415c0.203096,-0.19358 0.358121,-0.324715 0.374946,-0.453352c0.015623,-0.129886 0.062491,-0.261021 0.140605,-0.307231c0.078114,-0.048707 0.124982,0.128637 0.218718,-0.081179c0.093736,-0.212314 0.187473,-0.196078 0.281209,-0.373423c0.092535,-0.179842 -0.156227,-0.405894 0.028842,-0.537029c0.188675,-0.128637 0.516752,-0.290995 0.516752,-0.290995s0.093736,-0.048707 0.281209,-0.097415c0.186271,-0.047458 0.389367,-0.017485 0.451858,-0.112401c0.062491,-0.098663 0.124982,-0.308479 0.218718,-0.42213c0.094938,-0.114899 0.203096,-0.292244 0.156227,-0.373423c-0.046868,-0.081179 0.124982,-0.439614 0.109359,-0.53578c-0.015623,-0.097415 -0.156227,-0.325964 0.078114,-0.519544s0.483103,-0.488322 0.499928,-0.567003c0.014421,-0.081179 0.203096,-0.42213 0.185069,-0.585736c-0.014421,-0.161109 -0.185069,-0.355938 -0.294428,-0.405894c-0.110561,-0.046209 -0.3437,-0.062445 -0.437437,-0.192331s-0.359323,-0.259772 -0.453059,-0.227301c-0.092535,0.032472 -0.249964,0.063694 -0.374946,-0.018734c-0.124982,-0.078681 -0.326876,-0.178593 -0.404989,-0.242288c-0.079315,-0.063694 -0.281209,-0.112401 -0.374946,-0.112401s-0.078114,-0.066192 -0.218718,0.128637c-0.140605,0.196078 0,0.261021 -0.249964,0.227301c-0.251166,-0.029974 0.030044,-0.047458 0.173052,-0.242288c0.138201,-0.19358 -0.016824,-0.308479 -0.173052,-0.258523c-0.156227,0.048707 -0.046868,0.146122 -0.296832,0.194829c-0.248762,0.047458 -0.248762,-0.114899 -0.092535,-0.146122c0.156227,-0.032472 0.436235,-0.178593 0.436235,-0.242288c0,-0.066192 -0.031245,-0.244785 -0.156227,-0.244785s-0.093736,-0.161109 -0.280007,-0.370925c-0.187473,-0.212314 -0.421814,-0.3422 -0.610488,-0.310977c-0.185069,0.032472 -0.326876,0.081179 -0.420612,-0.094917c-0.093736,-0.179842 -0.203096,-0.212314 -0.266788,-0.308479c-0.061289,-0.097415 -0.218718,0 -0.265586,-0.048707s-0.046868,-0.048707 -0.046868,-0.048707s-0.203096,0.048707 -0.092535,-0.097415c0.108157,-0.146122 0.155026,-0.42213 0.108157,-0.405894c-0.045666,0.016236 -0.124982,0.244785 -0.201894,0.22855c-0.076912,-0.016236 -0.016824,-0.049956 -0.173052,-0.146122c-0.156227,-0.097415 -0.404989,-0.016236 -0.404989,0.064943c0,0.081179 -0.078114,0.146122 -0.078114,0.146122s-0.046868,-0.047458 -0.093736,-0.146122c-0.046868,-0.097415 -0.265586,-0.11365 -0.374946,-0.016236c-0.108157,0.097415 -0.170648,-0.244785 -0.248762,-0.244785s-0.233139,0.081179 -0.312455,0.229798c-0.076912,0.144873 -0.045666,0.355938 -0.110561,0.339702c-0.060087,-0.016236 -0.07571,-0.290995 -0.060087,-0.389658c0.014421,-0.098663 0.186271,-0.259772 0.060087,-0.292244c-0.12378,-0.032472 -0.311253,0.162358 -0.388165,0.178593c-0.078114,0.016236 -0.234341,0.129886 -0.328077,0.261021c-0.092535,0.128637 -0.139403,0.209816 -0.234341,0.258523c-0.092535,0.048707 -0.231938,0 -0.200692,-0.048707c0.030044,-0.048707 -0.266788,-0.226052 -0.313656,-0.162358c-0.04807,0.064943 -0.186271,0.11365 -0.326876,0.179842c-0.140605,0.064943 -0.266788,-0.081179 -0.296832,-0.146122s-0.094938,-0.07993 -0.109359,-0.292244c-0.015623,-0.209816 0.032447,-0.438366 0.078114,-0.567003c0.045666,-0.129886 -0.234341,-0.389658 -0.3437,-0.374671c-0.109359,0.018734 -0.218718,0.131135 -0.326876,0.11365c-0.110561,-0.014987 -0.062491,-0.047458 -0.234341,-0.047458c-0.17185,0 -0.031245,-0.031223 0,-0.178593c0.030044,-0.144873 -0.062491,-0.340951 0.110561,-0.470837c0.170648,-0.129886 0.109359,-0.438366 0,-0.453352c-0.110561,-0.017485 -0.313656,0.048707 -0.453059,0.032472c-0.139403,-0.017485 -0.249964,0.11365 -0.203096,0.258523c0.046868,0.146122 -0.078114,0.243536 -0.124982,0.22855c-0.046868,-0.016236 -0.108157,-0.097415 -0.281209,0.032472c-0.170648,0.128637 -0.233139,0.07993 -0.404989,-0.064943c-0.17185,-0.147371 -0.359323,-0.292244 -0.390568,-0.519544c-0.031245,-0.227301 -0.04807,-0.454601 0.015623,-0.584487c0.061289,-0.129886 0.061289,-0.355938 -0.031245,-0.389658c-0.093736,-0.031223 0.108157,-0.19358 0.217517,-0.226052c0.110561,-0.032472 0.281209,-0.178593 0.312455,-0.243536c0.031245,-0.064943 0.187473,-0.049956 0.358121,-0.049956c0.17185,0 0.203096,0 0.374946,0.097415c0.17185,0.097415 0.203096,-0.048707 0.203096,-0.097415c0,-0.048707 0.062491,-0.146122 0.249964,-0.129886c0.187473,0.016236 0.451858,-0.064943 0.499928,-0.016236s0.139403,0.243536 0.233139,0.178593c0.094938,-0.063694 0.124982,-0.178593 0.157429,0.017485c0.030044,0.19358 0.108157,0.487073 0.249964,0.53578c0.139403,0.048707 0.062491,0.242288 0.201894,0.258523c0.138201,0.016236 0.204297,-0.307231 0.157429,-0.420881c-0.04807,-0.112401 -0.141806,-0.453352 -0.21992,-0.534531c-0.076912,-0.081179 -0.076912,-0.292244 0.076912,-0.357187c0.156227,-0.064943 0.531173,-0.389658 0.63933,-0.485824c0.110561,-0.098663 0.406191,-0.179842 0.313656,-0.309728c-0.093736,-0.129886 -0.124982,-0.209816 -0.124982,-0.308479s0.093736,-0.064943 0.140605,0s0.233139,-0.097415 0.186271,-0.178593c-0.045666,-0.07993 -0.031245,-0.19358 0.078114,-0.178593c0.109359,0.016236 0.139403,-0.081179 0.093736,-0.146122c-0.046868,-0.064943 0.109359,-0.146122 0.218718,-0.11365c0.110561,0.032472 0.390568,-0.016236 0.437437,-0.081179c0.045666,-0.064943 -0.093736,-0.129886 -0.093736,-0.259772c0,-0.129886 0.186271,-0.243536 0.296832,-0.259772c0.109359,-0.016236 0.248762,0 0.265586,-0.048707c0.014421,-0.048707 0.17185,-0.178593 0.186271,-0.064943c0.016824,0.11365 0,0.308479 0.124982,0.308479c0.124982,0 0.278806,-0.146122 0.326876,-0.161109c0.045666,-0.016236 0.3437,-0.081179 0.406191,-0.097415c0.062491,-0.016236 0.436235,-0.048707 0.390568,-0.162358c-0.046868,-0.112401 -0.093736,-0.226052 -0.141806,-0.274759c-0.046868,-0.048707 -0.092535,0.016236 -0.156227,0.097415c-0.061289,0.081179 -0.17185,0.081179 -0.201894,0.016236c-0.031245,-0.063694 0.014421,-0.258523 -0.093736,-0.194829c-0.110561,0.064943 -0.124982,0.129886 -0.188675,0.097415c-0.062491,-0.032472 -0.12378,-0.146122 -0.12378,-0.146122s0.155026,-0.07993 0.045666,-0.227301c-0.108157,-0.146122 -0.265586,-0.11365 -0.420612,-0.031223c-0.156227,0.07993 -0.141806,0.063694 -0.328077,0.112401s-0.281209,0.097415 -0.281209,0.097415s0.251166,-0.161109 0.359323,-0.259772c0.109359,-0.097415 0.251166,-0.146122 0.3437,-0.243536c0.093736,-0.097415 0.342498,0.048707 0.342498,0.048707s0.126184,-0.129886 0.126184,-0.048707s-0.032447,0.292244 0.061289,0.292244c0.094938,0 0.359323,-0.129886 0.252367,-0.163607c-0.111763,-0.032472 0.155026,0 0.263183,-0.081179c0.110561,-0.081179 0.233139,-0.081179 0.296832,-0.112401c0.062491,-0.032472 0.110561,-0.178593 0.218718,-0.178593c0.110561,0 0.156227,0.146122 0,0.243536s-0.17185,0.340951 -0.249964,0.405894c-0.076912,0.064943 -0.031245,0.146122 0.093736,0.129886c0.124982,-0.016236 0.233139,0.016236 0.3437,-0.016236s0.17185,0.032472 0.201894,0.081179c0.031245,0.048707 0.124982,-0.048707 0.124982,-0.048707s0.203096,-0.048707 0.265586,0.032472c0.063693,0.07993 0.110561,-0.048707 0.063693,-0.129886c-0.046868,-0.07993 -0.110561,-0.161109 -0.156227,-0.259772c-0.046868,-0.097415 -0.109359,-0.129886 -0.233139,-0.097415c-0.124982,0.032472 -0.156227,-0.032472 -0.234341,-0.07993c-0.078114,-0.049956 -0.141806,0.064943 -0.078114,-0.049956c0.063693,-0.112401 0.093736,-0.146122 0.140605,-0.243536c0.046868,-0.097415 0.251166,-0.276008 0.046868,-0.323466c-0.203096,-0.049956 -0.266788,-0.081179 -0.296832,-0.178593c-0.031245,-0.097415 -0.265586,-0.276008 -0.326876,-0.276008c-0.063693,0 -0.280007,0 -0.296832,-0.081179c-0.015623,-0.081179 -0.17185,-0.259772 -0.249964,-0.340951c-0.076912,-0.081179 -0.374946,-0.438366 -0.421814,-0.470837c-0.046868,-0.032472 -0.109359,-0.016236 -0.249964,0.178593c-0.139403,0.196078 -0.264385,0.22855 -0.374946,0.179842c-0.109359,-0.048707 -0.124982,-0.032472 -0.231938,-0.162358c-0.111763,-0.129886 0.108157,-0.146122 0.061289,-0.227301c-0.04807,-0.07993 -0.296832,-0.11365 -0.453059,-0.129886c-0.156227,-0.016236 -0.265586,-0.194829 -0.499928,-0.211065c-0.233139,-0.016236 -0.514348,0.032472 -0.592462,0.032472c-0.076912,0 -0.076912,0.11365 -0.108157,0.292244c-0.032447,0.178593 0.108157,0.227301 -0.032447,0.259772c-0.139403,0.032472 -0.203096,0.048707 -0.062491,0.11365c0.140605,0.064943 0.328077,0.324715 0.328077,0.324715s0,0.146122 -0.110561,0.227301c-0.108157,0.081179 -0.218718,0.162358 -0.280007,0.066192c-0.063693,-0.098663 -0.234341,-0.081179 -0.186271,0.016236c0.045666,0.097415 0.139403,0.146122 0.139403,0.243536c0,0.096166 0.140605,0.339702 0.046868,0.420881c-0.093736,0.081179 -0.201894,0.017485 -0.280007,0.032472s-0.157429,-0.129886 -0.093736,-0.162358c0.061289,-0.032472 -0.016824,-0.276008 -0.016824,-0.276008s-0.186271,0.276008 -0.17185,0.129886c0.016824,-0.146122 -0.076912,-0.162358 -0.076912,-0.276008c0,-0.11365 -0.094938,-0.162358 -0.233139,-0.129886c-0.141806,0.032472 -0.312455,-0.049956 -0.579243,-0.098663c-0.264385,-0.048707 -0.373744,-0.07993 -0.592462,-0.194829c-0.218718,-0.11365 -0.296832,-0.032472 -0.406191,-0.016236c-0.109359,0.016236 -0.062491,-0.227301 -0.203096,-0.258523c-0.139403,-0.03372 -0.217517,0.031223 -0.248762,-0.179842c-0.031245,-0.209816 0.046868,-0.259772 0.389367,-0.487073c0.3437,-0.227301 0.296832,-0.324715 0.562418,-0.357187c0.264385,-0.032472 0.390568,0.032472 0.390568,-0.048707s0.062491,-0.405894 0.062491,-0.243536s0.314858,0.172349 0.173052,0.285999c-0.139403,0.11365 -0.062491,0.129886 0.04807,0.129886c0.109359,0 0.311253,-0.11365 0.311253,-0.11365s0.249964,-0.11365 0.312455,-0.016236c0.063693,0.097415 0.063693,0.194829 0.173052,0.194829s0.342498,-0.129886 0.139403,-0.243536c-0.201894,-0.11365 -0.326876,-0.097415 -0.451858,-0.227301s-0.093736,-0.081179 -0.234341,-0.048707c-0.139403,0.032472 -0.139403,-0.048707 -0.187473,-0.048707s-0.124982,0.032472 -0.156227,-0.032472c-0.030044,-0.064943 0.016824,-0.081179 0.174254,-0.081179c0.155026,0 0.342498,0.048707 0.342498,0.048707s0.186271,-0.064943 0.233139,-0.081179c0.046868,-0.016236 0.296832,-0.048707 0.249964,-0.19358c-0.04807,-0.146122 -0.203096,-0.146122 -0.249964,-0.194829s0.093736,-0.112401 0.17185,-0.146122c0.078114,-0.032472 0.296832,0 0.296832,0s0.140605,0.016236 0.140605,-0.048707s-0.033649,-0.146122 0.061289,-0.097415s0,0.194829 0.140605,0.162358c0.139403,-0.032472 0.17185,0 0.248762,0.048707c0.078114,0.048707 -0.015623,0.243536 -0.092535,0.276008c-0.078114,0.031223 -0.203096,0.096166 -0.031245,0.112401c0.173052,0.017485 0.29563,0.017485 0.29563,0.017485s0.110561,-0.11365 0.157429,-0.211065c0.045666,-0.097415 0.124982,-0.032472 0.186271,0c0.062491,0.031223 0.296832,0.081179 0.078114,0.146122c-0.21992,0.064943 -0.265586,0.146122 -0.312455,0.227301c-0.045666,0.081179 -0.063693,0.129886 -0.265586,0.081179c-0.204297,-0.048707 -0.312455,-0.032472 -0.359323,0.048707c-0.046868,0.07993 -0.015623,0.340951 0.063693,0.308479c0.07571,-0.032472 0.155026,-0.032472 0.248762,-0.064943c0.093736,-0.032472 0.468682,0.032472 0.561217,0.016236c0.093736,-0.016236 0.251166,0.162358 0.298034,0.129886c0.046868,-0.032472 0.140605,0.064943 0.233139,0.129886c0.093736,0.064943 0.062491,-0.146122 0.233139,-0.016236c0.173052,0.129886 0.078114,0.129886 0.173052,0.129886c0.091333,0 0.29563,0.016236 0.29563,0.016236s0.016824,-0.161109 0.173052,-0.129886c0.156227,0.032472 0.294428,0.211065 0.278806,0.07993c-0.014421,-0.128637 0.015623,-0.226052 -0.108157,-0.323466c-0.124982,-0.097415 -0.326876,-0.162358 -0.359323,-0.211065c-0.031245,-0.048707 -0.062491,-0.11365 -0.015623,-0.146122c0.046868,-0.031223 0.265586,0.016236 0.389367,0.098663c0.124982,0.081179 0.234341,0.162358 0.328077,0.097415c0.092535,-0.064943 0.204297,-0.097415 0.249964,-0.146122c0.045666,-0.049956 0.156227,-0.194829 0.156227,-0.194829s-0.469884,-0.063694 -0.529971,-0.146122c-0.063693,-0.081179 -0.282411,-0.194829 -0.344902,-0.194829s-0.233139,0.11365 -0.29563,-0.048707s-0.062491,-0.357187 -0.126184,-0.373423c-0.060087,-0.016236 -0.717444,-0.11365 -0.809979,-0.162358c-0.093736,-0.048707 -0.468682,-0.162358 -0.609287,-0.243536s-0.3437,-0.194829 -0.46748,-0.194829c-0.124982,0 -0.640532,0.064943 -0.734269,0.048707c-0.093736,-0.016236 -0.374946,0.032472 -0.484305,0.048707c-0.109359,0.016236 0.140605,0.227301 -0.092535,0.276008c-0.234341,0.048707 -0.203096,0.081179 -0.156227,-0.162358c0.045666,-0.243536 -0.157429,-0.308479 -0.359323,-0.211065c-0.203096,0.097415 -0.531173,0.162358 -0.453059,0.276008c0.078114,0.11365 -0.014421,0.196078 0.140605,0.308479c0.156227,0.11365 0.21992,0.146122 0.420612,0.129886c0.204297,-0.016236 0.407393,0.031223 0.407393,0.031223s0,0.196078 -0.076912,0.227301c-0.078114,0.032472 -0.203096,0.032472 -0.235543,0.129886c-0.030044,0.097415 -0.186271,0.146122 -0.186271,0.097415s0.078114,-0.211065 -0.031245,-0.292244c-0.108157,-0.081179 -0.140605,-0.097415 -0.265586,-0.016236c-0.124982,0.081179 -0.139403,0.11365 -0.203096,-0.016236c-0.062491,-0.129886 -0.249964,-0.243536 -0.249964,-0.243536s-0.124982,-0.161109 -0.218718,-0.242288c-0.092535,-0.081179 -0.264385,-0.064943 -0.281209,0.016236c-0.015623,0.07993 0.031245,0.161109 0.093736,0.308479c0.062491,0.146122 0.124982,0.420881 0.015623,0.438366c-0.109359,0.016236 -0.124982,0.032472 -0.234341,0.064943c-0.109359,0.032472 -0.156227,-0.048707 -0.156227,-0.178593s-0.04807,-0.243536 -0.015623,-0.292244c0.031245,-0.048707 -0.124982,0.03372 -0.281209,0c-0.156227,-0.031223 -0.280007,0.064943 -0.124982,0.114899c0.156227,0.048707 0.188675,0.242288 0.046868,0.290995c-0.140605,0.048707 -0.671778,0 -0.843628,0s-0.420612,0.048707 -0.468682,-0.048707c-0.046868,-0.097415 0.141806,-0.161109 0.249964,-0.161109c0.109359,0 0.436235,0.014987 0.561217,-0.162358c0.124982,-0.178593 -0.156227,-0.211065 -0.280007,-0.211065c-0.124982,0 -0.21992,-0.048707 -0.359323,-0.19358c-0.141806,-0.146122 0.093736,-0.243536 0.062491,-0.308479c-0.031245,-0.064943 -0.187473,-0.017485 -0.326876,-0.017485c-0.140605,0 -0.359323,-0.112401 -0.359323,0.017485c0,0.129886 0.17185,0.50206 0.062491,0.420881c-0.109359,-0.07993 -0.093736,-0.194829 -0.17185,-0.292244c-0.078114,-0.097415 -0.201894,-0.081179 -0.359323,-0.064943c-0.155026,0.016236 -0.420612,0.064943 -0.498726,0.048707c-0.076912,-0.016236 -0.015623,-0.016236 -0.187473,-0.097415c-0.170648,-0.081179 -0.249964,-0.064943 -0.374946,-0.146122c-0.12378,-0.083677 -0.014421,-0.114899 -0.233139,-0.131135c-0.217517,-0.016236 -0.201894,0.112401 -0.420612,0.081179c-0.218718,-0.032472 -0.281209,0.016236 -0.499928,0c-0.218718,-0.016236 -0.326876,-0.032472 -0.359323,0.081179c-0.030044,0.11365 -0.093736,0.308479 -0.187473,0.308479c-0.092535,0 -0.203096,0.11365 0.093736,0.129886c0.296832,0.016236 0.126184,0.161109 0.390568,0.146122c0.265586,-0.016236 0.499928,-0.016236 0.562418,-0.146122c0.062491,-0.129886 0.109359,-0.129886 0.140605,-0.081179c0.030044,0.048707 0.264385,0.339702 0.264385,0.339702s0.157429,0.129886 0.21992,0.162358c0.061289,0.032472 -0.062491,0.178593 -0.187473,0.097415c-0.124982,-0.081179 -0.359323,-0.063694 -0.453059,-0.144873c-0.093736,-0.081179 -0.51555,-0.081179 -0.624909,-0.064943c-0.108157,0.016236 -0.296832,-0.048707 -0.359323,-0.048707c-0.061289,0 -0.265586,0.162358 -0.265586,0.162358s-0.078114,-0.131135 -0.12378,-0.196078c-0.046868,-0.064943 -0.124982,0.064943 -0.187473,0.081179c-0.062491,0.016236 -0.249964,-0.129886 -0.437437,-0.064943c-0.187473,0.064943 -0.124982,0.129886 -0.390568,0.11365s-0.326876,-0.064943 -0.420612,-0.048707c-0.094938,0.016236 -0.094938,0.016236 -0.094938,0.016236s0.015623,0.064943 -0.092535,0.129886c-0.109359,0.064943 -0.188675,0.146122 -0.266788,0.048707c-0.076912,-0.097415 -0.12378,-0.097415 -0.170648,-0.11365c-0.04807,-0.016236 -0.141806,-0.097415 -0.3437,-0.049956c-0.203096,0.049956 -0.51555,-0.063694 -0.576839,-0.063694c-0.04807,0 -0.376147,-0.018734 -0.590059,-0.041214c2.534488,-2.86249 6.157761,-4.670904 10.188426,-4.670904c2.557321,0 4.9476,0.735605 7.006196,1.99575c-0.140605,0.089921 -0.383358,0.074934 -0.466279,0.028725c-0.093736,-0.053703 -0.189876,-0.097415 -0.570831,-0.076183c-0.380954,0.02248 -0.799163,0.152366 -0.715041,0.282252c0.086526,0.129886 -0.170648,0.206069 -0.236745,0.141126c-0.066096,-0.064943 -0.37134,0.074934 -0.352112,0.206069c0.019228,0.129886 -0.046868,0.281004 -0.210306,0.248532c-0.161034,-0.03372 -0.2752,0.074934 -0.284814,0.18234c-0.008412,0.108655 -0.37134,0.183589 -0.398981,0.183589c-0.028842,0 -0.495121,-0.009991 -0.324472,0.118646c0.11657,0.086174 0.180262,0.03372 0.324472,0.064943c0.143008,0.032472 0.257174,0.271012 0.332884,0.303484c0.074508,0.032472 0.180262,0 0.227131,-0.064943c0.04807,-0.064943 0.114166,-0.292244 0.114166,-0.292244s0,0.216061 0.11657,0.259772c0.114166,0.043712 0.397779,-0.032472 0.474691,-0.021231c0.076912,0.009991 0.525164,0.076183 0.646541,0.139877c0.124982,0.064943 0.427823,0.108655 0.514348,0.248532c0.085324,0.141126 0.09614,0.628199 0.143008,0.681902c0.04807,0.053703 0.209104,-0.173598 0.246359,-0.227301c0.037254,-0.054952 0.237946,-0.02248 0.305244,0.052454c0.067298,0.076183 0.218718,0.259772 0.210306,0.335955c-0.012017,0.077432 -0.039658,0.194829 -0.09614,0.152366c-0.057684,-0.042463 -0.152622,-0.031223 -0.115368,-0.118646c0.038456,-0.086174 0.057684,-0.271012 -0.018026,-0.271012c-0.076912,0 -0.143008,0 -0.143008,0s-0.14421,-0.043712 -0.239148,0.118646s-0.018026,0.324715 0.04807,0.324715s0.221122,0 0.221122,0.042463c0,0.043712 -0.163438,0.173598 -0.153824,0.249781c0.010816,0.076183 0.132192,0.334706 0.173052,0.389658c0.037254,0.053703 0.236745,0.107406 0.293227,0.119895c0.058886,0.009991 -0.133394,0.021231 -0.084122,0.096166c0.04807,0.076183 0.122578,0.259772 0.227131,0.303484c0.104552,0.043712 0.400182,0.237292 0.436235,0.324715c0.038456,0.086174 0.266788,-0.064943 0.314858,-0.076183c0.04807,-0.009991 0.038456,0.227301 0.17185,0.238541c0.132192,0.009991 0.180262,-0.02248 0.294428,-0.119895s0.086526,-0.227301 0.094938,-0.324715c0.010816,-0.097415 0,-0.172349 0.124982,-0.141126c0.124982,0.032472 0.189876,-0.02248 0.180262,-0.129886c-0.009614,-0.108655 -0.114166,-0.238541 0.084122,-0.271012c0.200692,-0.032472 0.305244,-0.172349 0.429024,-0.172349c0.12378,0 0.46748,0.053703 0.503533,0c0.038456,-0.053703 0.200692,-0.303484 0.305244,-0.313475c0.080517,-0.008742 0.269192,-0.026227 0.462673,-0.052454c1.901167,2.354186 3.077679,5.350308 3.212275,8.623688c-0.141806,0.198576 -0.014421,0.380916 0.025237,0.509553c0.001202,0.037467 0.006009,0.072436 0.006009,0.109904c0,0.169851 -0.019228,0.335955 -0.025237,0.504558c-0.001202,0.002498 -0.001202,0.004996 -0.003605,0.007493zm-11.676191,-5.402762c-0.076912,0.016236 -0.203096,-0.064943 -0.203096,-0.178593s-0.109359,0.211065 -0.04807,0.308479c0.063693,0.097415 -0.124982,0.211065 -0.186271,0.211065s-0.109359,-0.144873 -0.093736,-0.290995c0.016824,-0.146122 -0.092535,-0.276008 -0.265586,-0.259772c-0.17185,0.017485 -0.249964,0.162358 -0.311253,0.211065c-0.063693,0.048707 -0.063693,0.323466 -0.04807,0.389658s0.015623,0.293493 -0.139403,0.276008c-0.141806,-0.016236 -0.110561,-0.290995 -0.094938,-0.389658c0.016824,-0.097415 -0.046868,-0.340951 0.016824,-0.469588c0.063693,-0.129886 0.248762,-0.178593 0.374946,-0.194829s0.389367,0.081179 0.436235,0.064943c0.04807,-0.017485 0.266788,-0.017485 0.374946,0c0.109359,0.013738 0.264385,0.305982 0.187473,0.322217zm0.280007,0.048707c0.04807,0.032472 0.373744,-0.048707 0.437437,0.032472c0.061289,0.081179 -0.064894,0.097415 -0.21992,0.162358c-0.155026,0.064943 -0.203096,0.048707 -0.265586,0.129886s-0.265586,0.112401 -0.359323,0.209816c-0.093736,0.098663 -0.260779,0.156113 -0.29563,0.081179c-0.04807,-0.097415 0.015623,-0.048707 0.030044,-0.097415c0.015623,-0.048707 0.294428,-0.161109 0.294428,-0.161109s0.331683,-0.389658 0.378551,-0.357187zm-1.248617,-0.568252c-0.045666,0.016236 -0.218718,-0.032472 -0.360525,-0.032472c-0.139403,0 -0.109359,-0.097415 -0.17185,-0.07993c-0.061289,0.016236 -0.201894,0.048707 -0.296832,0.097415c-0.093736,0.048707 -0.249964,0.037467 -0.249964,-0.049956c0,-0.129886 0.062491,-0.097415 0.265586,-0.178593c0.203096,-0.081179 0.423016,-0.308479 0.51555,-0.211065c0.093736,0.097415 0.265586,0.211065 0.374946,0.227301c0.110561,0.017485 -0.031245,0.211065 -0.076912,0.227301zm-1.597124,-5.034335c-0.094938,0.032472 -0.417007,0.173598 -0.385761,0.248532c0.012017,0.028725 0.093736,0.086174 0.228332,0.064943c0.135798,-0.02248 0.331683,-0.043712 0.426621,-0.053703c0.093736,-0.01124 0.114166,-0.173598 0.010816,-0.183589c-0.104552,-0.01124 -0.187473,-0.108655 -0.280007,-0.076183zm-1.154881,0.129886c-0.073307,0.032472 -0.292025,-0.053703 -0.406191,0.02248c-0.073307,0.047458 -0.031245,0.20482 0.084122,0.214812c0.114166,0.01124 0.311253,-0.074934 0.331683,-0.009991c0.021631,0.064943 0.093736,0.357187 0.281209,0.259772c0.187473,-0.097415 0.176657,-0.183589 0.228332,-0.194829c0.051675,-0.01124 -0.009614,-0.248532 -0.093736,-0.303484c-0.082921,-0.053703 -0.353314,-0.021231 -0.425419,0.01124zm-0.376147,-0.919194c0.02043,0.054952 -0.009614,0.097415 0.135798,0.118646c0.145412,0.02248 0.207903,0.043712 0.292025,0.043712c0.082921,0 0.050473,-0.141126 -0.021631,-0.237292c-0.073307,-0.097415 -0.051675,-0.086174 -0.239148,-0.141126c-0.187473,-0.053703 -0.374946,-0.053703 -0.499928,-0.043712c-0.124982,0.01124 -0.260779,-0.021231 -0.292025,0.129886c-0.015623,0.077432 0.084122,0.139877 0.209104,0.139877s0.395375,-0.063694 0.415805,-0.009991zm0.271595,0.594479c0.051675,0.118646 0.051675,0.063694 0.198289,0.076183c0.14421,0.01124 0.258376,-0.151117 0.269192,-0.20482c0.010816,-0.054952 -0.073307,-0.162358 -0.270393,-0.141126c-0.198289,0.021231 -0.801566,-0.032472 -0.884487,0.042463c-0.079315,0.072436 0,0.290995 -0.031245,0.313475c-0.031245,0.021231 0.010816,0.118646 0.092535,0.097415c0.082921,-0.021231 0.124982,-0.227301 0.188675,-0.227301c0.062491,0.001249 0.385761,-0.074934 0.437437,0.043712zm-1.957649,-0.443361c0.062491,0.053703 0.21992,0.009991 0.207903,-0.043712c-0.009614,-0.053703 0.063693,-0.271012 -0.061289,-0.281004c-0.124982,-0.009991 -0.300437,0.119895 -0.489112,0.184838c-0.121377,0.041214 -0.093736,0.162358 -0.010816,0.162358s0.292025,-0.076183 0.353314,-0.02248zm0.886891,0.194829c-0.104552,0.053703 -0.136999,0.086174 -0.229534,0.064943c-0.093736,-0.021231 -0.093736,-0.194829 -0.260779,-0.162358c-0.165841,0.032472 -0.197087,0.129886 -0.248762,0.173598s-0.167043,0.076183 -0.207903,0.053703c-0.040859,-0.021231 -0.281209,-0.161109 -0.281209,-0.161109s-0.499928,-0.02248 -0.520357,-0.087423c-0.02043,-0.064943 -0.10335,-0.172349 -0.332884,-0.151117s-0.624909,0.162358 -0.6874,0.162358c-0.062491,0 0.074508,0.129886 -0.010816,0.129886c-0.082921,0 -0.186271,-0.009991 -0.217517,0.086174c-0.021631,0.066192 0.093736,0.064943 0.227131,0.064943c0.134596,0 0.354516,0 0.417007,-0.032472c0.062491,-0.032472 0.374946,-0.108655 0.36413,-0.01124c-0.010816,0.098663 0.124982,0.248532 0.197087,0.227301c0.073307,-0.021231 0.21992,-0.162358 0.292025,-0.107406c0.073307,0.053703 0.084122,0.18234 0.156227,0.216061c0.073307,0.031223 0.271595,0.031223 0.365332,0c0.092535,-0.03372 0.353314,-0.03372 0.46748,-0.01124c0.114166,0.02248 0.448252,0.086174 0.479498,0.02248c0.031245,-0.066192 0.124982,-0.076183 0.134596,-0.141126s0.061289,-0.269763 0.061289,-0.269763s-0.061289,-0.119895 -0.16464,-0.066192zm5.269669,11.186441c-0.143008,0.026227 -0.109359,0.314724 0.062491,0.26227c0.17185,-0.052454 0.079315,-0.289746 -0.062491,-0.26227zm1.357976,-0.38716c-0.124982,-0.032472 -0.265586,0 -0.359323,0.016236c-0.093736,0.016236 -0.359323,0.259772 -0.359323,0.259772s0.17185,0.032472 0.280007,0.032472c0.110561,0 0.173052,0.063694 0.265586,0.112401c0.093736,0.049956 0.265586,-0.064943 0.326876,-0.064943c0.063693,0 0.141806,0.194829 0.157429,-0.016236c0.016824,-0.211065 -0.186271,-0.307231 -0.311253,-0.339702zm-4.349129,-10.518276c-0.051675,-0.129886 -0.311253,-0.173598 -0.365332,-0.043712c-0.045666,0.11365 0.417007,0.173598 0.365332,0.043712zm2.976732,9.722724c0.17185,-0.032472 0.076912,-0.179842 -0.063693,-0.162358c-0.141806,0.016236 -0.109359,0.194829 0.063693,0.162358zm2.07542,1.002871c-0.143008,0.027476 -0.110561,0.315973 0.061289,0.263519c0.173052,-0.052454 0.079315,-0.289746 -0.061289,-0.263519zm-1.890351,-0.483326c-0.108157,0.016236 -0.342498,-0.112401 -0.46748,-0.227301c-0.124982,-0.11365 -0.359323,-0.11365 -0.453059,-0.11365c-0.092535,0 -0.468682,0.11365 -0.468682,0.11365c-0.015623,0.162358 0.140605,0.11365 0.328077,0.11365s0.51555,-0.032472 0.575638,0.048707c0.063693,0.07993 0.3437,0.209816 0.423016,0.276008c0.076912,0.064943 0.326876,0.081179 0.342498,0.016236s-0.170648,-0.243536 -0.280007,-0.227301zm-1.861509,-10.360914c-0.156227,-0.01124 -0.354516,-0.01124 -0.479498,0c-0.124982,0.009991 -0.218718,-0.086174 -0.312455,-0.141126c-0.092535,-0.053703 -0.301639,-0.227301 -0.425419,-0.248532c-0.124982,-0.021231 -0.10335,-0.021231 -0.36413,-0.086174c-0.132192,-0.03372 -0.353314,-0.076183 -0.353314,-0.107406c0,-0.032472 -0.062491,0.151117 0.051675,0.206069c0.114166,0.053703 0.301639,0.151117 0.436235,0.20482c0.136999,0.053703 0.395375,0.064943 0.479498,0.173598c0.082921,0.107406 0.36413,0.194829 0.36413,0.194829l0.332884,0.032472c0,0 0.229534,-0.053703 0.468682,-0.032472c0.239148,0.021231 0.592462,0.053703 0.791952,0.043712c0.195885,-0.009991 0.227131,-0.076183 0.249964,-0.118646c0.019228,-0.043712 -0.365332,-0.129886 -0.46027,-0.118646c-0.091333,0.007493 -0.624909,0.007493 -0.779935,-0.002498zm0.581646,2.487818c-0.040859,0.048707 0.188675,0.118646 0.229534,0.053703c0.040859,-0.063694 -0.122578,-0.172349 -0.229534,-0.053703zm0.699418,0.226052c0.10335,-0.043712 0.051675,-0.173598 -0.094938,-0.129886c-0.165841,0.049956 -0.010816,0.173598 0.094938,0.129886z"
              fill-opacity="null" stroke-opacity="null" stroke-width="0" fill="#3498db"/>
        <path stroke="null" id="svg_7"
              d="m0.213501,24.092326c8.116101,0 15.747029,2.150424 21.479454,6.051524c5.745609,3.902885 8.904507,9.103163 8.904507,14.637158l12.511663,0c0,-16.075532 -19.246076,-29.151179 -42.898261,-29.151179l0,8.462497l0.002637,0zm0.015821,-15.004782c28.933716,0 52.467245,16.016641 52.467245,35.702387l12.50639,0c0,-24.352433 -29.147297,-44.166668 -64.976271,-44.166668l0,8.464282l0.002637,0zm17.297473,29.786491c0,3.23902 -3.878747,5.865927 -8.661921,5.865927s-8.661921,-2.626908 -8.661921,-5.865927c0,-3.235451 3.878747,-5.862358 8.661921,-5.862358s8.661921,2.625123 8.661921,5.862358z"
              fill-opacity="null" stroke-opacity="null" stroke-width="0" fill="#3498db"/>
    </g>
</svg>